<svg id="Layer_1" data-name="Layer 1" xmlns="http://www.w3.org/2000/svg" viewBox="0 0 1684.54 795.56"><defs><style>.cls-1,.cls-2{fill:#fff;}.cls-1{stroke:#fff;stroke-linecap:round;stroke-linejoin:round;stroke-width:20px;}</style></defs><title>OpalWhite_v220622</title><path class="cls-1" d="M873.77,397.83v536.9h67.34V735h1.56c25.16,44.13,70.83,69.29,128.12,69.29,101.42,0,170.71-82.07,170.71-205.16S1171.82,394,1069.24,394c-55.74,0-106.45,27.49-130.06,69.29h-1.55V397.83Zm182.31,55.74c70.07,0,116.52,57.68,116.52,145.55,0,88.26-46.45,145.55-116.52,145.55-68.51,0-115.35-58.84-115.35-145.55C940.73,512.8,987.57,453.57,1056.08,453.57Z" transform="translate(-118.46 -149.16)"/><path class="cls-1" d="M1448.49,569.7c-92.91,5.42-145.94,48-145.94,116.9,0,72.39,53.81,121.16,133.94,121.16,54.19,0,105.28-30.58,129.28-76.64h1.55v69.29h63.87V524c0-78.57-60.77-130.06-153.28-130.06-88.65,0-155.62,51.1-157.55,120.39h64.25c7.75-37.93,42.59-61.16,92.13-61.16,55.36,0,87.1,27.87,87.1,76.64v33.29Zm115.35,77.81c0,58.06-48.78,102.58-112.26,102.58-48.39,0-80.51-25.16-80.51-63.49,0-37.93,31-61.16,85.16-64.64l107.61-6.58Z" transform="translate(-118.46 -149.16)"/><rect class="cls-1" x="1607.18" y="92.67" width="67.36" height="558.57"/><path class="cls-2" d="M459.18,149.16c-188.18,0-340.72,152.55-340.72,340.73S271,830.61,459.18,830.61,799.91,678.07,799.91,489.89,647.36,149.16,459.18,149.16ZM713.27,585.22c-12.52,24.53-20.49,32.75-64.4,57.11S506.53,713.5,474.33,726.85s-66.23,15.6-88.55,1.51S247.83,623.68,231,608.07s-32.57-38-32.57-71.57c0-40.35,11-62.44,39.52-104.69,32.39-47.95,65.86-97.08,81.6-117.26,21.88-30.83,52.47-53.68,63.67-59.77s23-11.26,34.76-12.18c0,0,95.14-5.33,147.83,12.18,0,0,14.49,3,24.88,11.42,11.12,9,18.29,25.43,27.08,43.4s33.66,70.43,43.91,93.66,43.18,95.17,51.59,121S722.6,567,713.27,585.22Z" transform="translate(-118.46 -149.16)"/></svg>