<svg width="14" height="22" viewBox="0 0 14 22" fill="none" xmlns="http://www.w3.org/2000/svg">
<path d="M6.13596 15.3892C5.23042 15.3892 4.72106 14.8119 4.72106 13.9516V13.3517C4.72106 11.4387 5.94354 10.1823 7.66406 9.0051C9.2148 7.96373 10.1317 7.13743 10.1317 5.58669C10.1317 3.77561 8.55828 2.63237 6.54346 2.63237C4.87953 2.63237 3.58913 3.36812 3.02317 5.30371C2.80811 5.92627 2.32138 6.2998 1.65354 6.2998C0.815918 6.2998 0.34051 5.7678 0.34051 4.98677C0.34051 4.52268 0.453702 3.99068 0.702725 3.45867C1.67618 1.34197 3.96267 0.130815 6.66797 0.130815C10.3014 0.130815 13.0973 2.13432 13.0973 5.56405C13.0973 7.73735 11.9088 9.24281 9.92791 10.5558C8.08287 11.767 7.56219 12.3669 7.50559 13.7479C7.49427 13.8497 7.49427 13.9743 7.49427 14.0874C7.43768 14.8685 6.98491 15.3892 6.13596 15.3892ZM6.14728 21.7053C5.12855 21.7053 4.30225 20.8903 4.30225 19.8829C4.30225 18.8642 5.12855 18.0605 6.14728 18.0605C7.17733 18.0605 8.00364 18.8642 8.00364 19.8829C8.00364 20.8903 7.17733 21.7053 6.14728 21.7053Z" fill="white"/>
</svg>
