<svg width="86" height="41" viewBox="0 0 86 41" fill="none" xmlns="http://www.w3.org/2000/svg">
<g clip-path="url(#clip0_1_819)">
<path d="M38.4688 12.6638V40.0095H41.8985V29.8368H41.978C43.2595 32.0844 45.5856 33.3659 48.5035 33.3659C53.6691 33.3659 57.1982 29.1858 57.1982 22.9166C57.1982 16.6473 53.6492 12.4688 48.4245 12.4688C45.5856 12.4688 43.0028 13.8689 41.8002 15.9979H41.7213V12.6638H38.4688ZM47.7543 15.5028C51.3231 15.5028 53.6889 18.4406 53.6889 22.916C53.6889 27.4114 51.3231 30.3293 47.7543 30.3293C44.2649 30.3293 41.8792 27.3324 41.8792 22.916C41.8792 18.5195 44.2649 15.5028 47.7543 15.5028Z" fill="white" stroke="white" stroke-width="1.17419" stroke-linecap="round" stroke-linejoin="round"/>
<path d="M67.7417 21.4207C63.0095 21.6967 60.3086 23.8654 60.3086 27.3747C60.3086 31.0617 63.0493 33.5457 67.1305 33.5457C69.8905 33.5457 72.4927 31.9881 73.7151 29.6422H73.794V33.1713H77.0471V19.093C77.0471 15.0913 73.9519 12.4688 69.2401 12.4688C64.725 12.4688 61.314 15.0714 61.2157 18.6005H64.4881C64.8828 16.6686 66.6573 15.4855 69.1805 15.4855C72.0002 15.4855 73.6168 16.905 73.6168 19.389V21.0845L67.7417 21.4207ZM73.6168 25.3837C73.6168 28.3409 71.1323 30.6084 67.8991 30.6084C65.4344 30.6084 63.7985 29.3269 63.7985 27.3747C63.7985 25.4428 65.3774 24.2596 68.1359 24.0824L73.6168 23.7473V25.3837Z" fill="white" stroke="white" stroke-width="1.17419" stroke-linecap="round" stroke-linejoin="round"/>
<path d="M85.2862 4.71881H81.8553V33.1682H85.2862V4.71881Z" fill="white" stroke="white" stroke-width="1.17419" stroke-linecap="round" stroke-linejoin="round"/>
<path d="M17.3538 0C7.76926 0 0 7.76977 0 17.3543C0 26.9388 7.76926 34.708 17.3538 34.708C26.9382 34.708 34.708 26.9388 34.708 17.3543C34.708 7.76977 26.9382 0 17.3538 0ZM30.2952 22.2097C29.6575 23.459 29.2516 23.8777 27.0152 25.1184C24.7787 26.3591 19.7654 28.7433 18.1254 29.4232C16.4853 30.1032 14.7521 30.2178 13.6153 29.5002C12.4785 28.7825 6.58915 24.1685 5.73195 23.3735C4.87476 22.5784 4.07308 21.438 4.07308 19.7282C4.07308 17.6731 4.63334 16.548 6.08593 14.3961C7.73564 11.9539 9.44035 9.45156 10.242 8.42374C11.3564 6.85349 12.9145 5.68968 13.4849 5.3795C14.0554 5.06932 14.6564 4.806 15.2553 4.75914C15.2553 4.75914 20.1011 4.48767 22.7847 5.3795C22.7847 5.3795 23.5227 5.5323 24.0519 5.96115C24.6183 6.41954 24.9835 7.25637 25.4312 8.17162C25.8788 9.08688 27.1455 11.7588 27.6676 12.942C28.1897 14.1251 29.8669 17.7892 30.2952 19.1048C30.7236 20.4204 30.7704 21.2817 30.2952 22.2097Z" fill="white"/>
</g>
<defs>
<clipPath id="clip0_1_819">
<rect width="85.798" height="40.5199" fill="white"/>
</clipPath>
</defs>
</svg>
