<svg width="27" height="27" viewBox="0 0 27 27" fill="none" xmlns="http://www.w3.org/2000/svg">
<path d="M25.1977 2.178C26.6745 3.64045 26.9469 5.6764 26.9469 8.28587V13.0603H20.0791C21.8714 12.1857 23.0757 10.6516 23.0757 8.78769C23.0757 6.57968 21.4412 4.93084 19.2189 4.93084C17.3693 4.93084 15.7205 6.04918 14.7455 7.89875V0.414462H19.0755C21.685 0.414462 23.7209 0.701217 25.1977 2.178ZM11.9927 12.8739C9.12513 12.8739 6.70206 10.881 6.70206 9.04577C6.70206 7.97044 7.36159 7.3109 8.40825 7.3109C10.5446 7.3109 12.4085 9.71964 12.4085 12.4581V12.8739H11.9927ZM15.4481 12.8739H15.0179V12.4581C15.0179 9.71964 16.8818 7.3109 19.0325 7.3109C20.0648 7.3109 20.7243 7.97044 20.7243 9.04577C20.7243 10.881 18.3013 12.8739 15.4481 12.8739ZM0.49383 13.0603V8.25719C0.49383 5.6764 0.766247 3.65479 2.24303 2.178C3.70548 0.715554 5.75577 0.414462 8.32222 0.414462H12.6809V7.89875C11.7059 6.04918 10.0714 4.93084 8.20752 4.93084C5.98517 4.93084 4.35067 6.57968 4.35067 8.78769C4.35067 10.6516 5.56938 12.1857 7.34726 13.0603H0.49383ZM21.8857 19.4549C19.8641 19.1969 17.1543 16.6878 16.2797 14.9529H26.9469V18.9961C26.9469 21.6199 26.6745 23.6272 25.1977 25.104C23.7209 26.5808 21.685 26.8675 19.0755 26.8675H14.7455V16.2146H14.8602C15.8639 19.2686 19.3479 21.8637 21.6563 22.2221C22.6456 22.3655 23.2191 21.6343 23.2191 20.9031C23.2191 20.1001 22.746 19.584 21.8857 19.4549ZM2.22869 25.104C0.766247 23.6416 0.49383 21.6199 0.49383 18.9961V14.9529H11.1468C10.2722 16.6878 7.56232 19.1682 5.5407 19.4549C4.68044 19.5983 4.2073 20.1001 4.2073 20.9031C4.2073 21.6343 4.79514 22.3655 5.77011 22.2221C8.09282 21.8637 11.5625 19.2686 12.5805 16.2146H12.6809V26.8675H8.36523C5.75577 26.8675 3.71982 26.5808 2.22869 25.104Z" fill="white"/>
</svg>
